solid SightGuard
facet normal 1.0 -6.482418879075351e-18 1.0212327171848993e-16
  outer loop
    vertex -569.9726379792378 620.2646476905938 5.0799999999577725
    vertex -569.9726379792379 638.318148393376 6.551111260566428
    vertex -569.9726379792378 620.2892250467373 12.577418886944708
  endloop
endfacet
facet normal 1.0 -6.482418879075351e-18 1.0212327171848993e-16
  outer loop
    vertex -569.9726379792379 638.318148393376 6.551111260566428
    vertex -569.9726379792378 620.2646476905938 5.0799999999577725
    vertex -569.9726379792379 638.7063769610296 6.500000000000033
  endloop
endfacet
facet normal 1.0 -6.482418879075351e-18 1.0212327171848993e-16
  outer loop
    vertex -569.9726379792379 638.7063769610296 6.500000000000033
    vertex -569.9726379792378 620.2646476905938 5.0799999999577725
    vertex -569.9726379792378 657.1337509647714 5.0799999999577725
  endloop
endfacet
facet normal 1.0 -6.482418879075351e-18 1.0212327171848993e-16
  outer loop
    vertex -569.9726379792378 620.2892250467373 12.577418886944708
    vertex -569.9726379792379 638.318148393376 6.551111260566428
    vertex -569.9726379792379 637.9563769610296 6.70096189432338
  endloop
endfacet
facet normal 1.0 -6.482418879075351e-18 1.0212327171848993e-16
  outer loop
    vertex -569.9726379792378 620.2892250467373 12.577418886944708
    vertex -569.9726379792379 637.9563769610296 6.70096189432338
    vertex -569.9726379792379 637.6457167892498 6.939339828220218
  endloop
endfacet
facet normal 1.0 -6.482418879075351e-18 1.0212327171848993e-16
  outer loop
    vertex -569.9726379792378 620.2892250467373 12.577418886944708
    vertex -569.9726379792379 637.6457167892498 6.939339828220218
    vertex -569.9726379792379 637.407338855353 7.2500000000000435
  endloop
endfacet
facet normal 1.0 -6.482418879075351e-18 1.0212327171848993e-16
  outer loop
    vertex -569.9726379792378 620.2892250467373 12.577418886944708
    vertex -569.9726379792379 637.407338855353 7.2500000000000435
    vertex -569.9726379792379 637.2574882215962 7.611771432346263
  endloop
endfacet
facet normal 1.0 -6.482418879075351e-18 1.0212327171848993e-16
  outer loop
    vertex -569.9726379792378 620.2892250467373 12.577418886944708
    vertex -569.9726379792379 637.2574882215962 7.611771432346263
    vertex -569.9726379792379 637.2063769610296 8.000000000000053
  endloop
endfacet
facet normal 1.0 -6.482418879075351e-18 1.0212327171848993e-16
  outer loop
    vertex -569.9726379792379 638.7063769610296 6.500000000000033
    vertex -569.9726379792378 657.1337509647714 5.0799999999577725
    vertex -569.9726379792379 639.0946055286836 6.551111260566428
  endloop
endfacet
facet normal 1.0 -6.482418879075351e-18 1.0212327171848993e-16
  outer loop
    vertex -569.9726379792379 639.0946055286836 6.551111260566428
    vertex -569.9726379792378 657.1337509647714 5.0799999999577725
    vertex -569.9726379792379 639.4563769610297 6.70096189432338
  endloop
endfacet
facet normal 1.0 -6.482418879075351e-18 1.0212327171848993e-16
  outer loop
    vertex -569.9726379792379 639.4563769610297 6.70096189432338
    vertex -569.9726379792378 657.1337509647714 5.0799999999577725
    vertex -569.9726379792379 639.7670371328096 6.939339828220218
  endloop
endfacet
facet normal 1.0 -6.482418879075351e-18 1.0212327171848993e-16
  outer loop
    vertex -569.9726379792379 639.7670371328096 6.939339828220218
    vertex -569.9726379792378 657.1337509647714 5.0799999999577725
    vertex -569.9726379792379 640.0054150667064 7.2500000000000435
  endloop
endfacet
facet normal 1.0 -6.482418879075351e-18 1.0212327171848993e-16
  outer loop
    vertex -569.9726379792379 640.0054150667064 7.2500000000000435
    vertex -569.9726379792378 657.1337509647714 5.0799999999577725
    vertex -569.9726379792379 640.1552657004634 7.611771432346263
  endloop
endfacet
facet normal 1.0 -6.482418879075351e-18 1.0212327171848993e-16
  outer loop
    vertex -569.9726379792379 640.1552657004634 7.611771432346263
    vertex -569.9726379792378 657.1337509647714 5.0799999999577725
    vertex -569.9726379792379 640.2063769610297 8.000000000000053
  endloop
endfacet
facet normal 1.0 -6.482418879075351e-18 1.0212327171848993e-16
  outer loop
    vertex -569.9726379792379 640.2063769610297 8.000000000000053
    vertex -569.9726379792378 657.1337509647714 5.0799999999577725
    vertex -569.9726379792378 656.325355231406 12.577431808106908
  endloop
endfacet
facet normal 1.0 -6.482418879075351e-18 1.0212327171848993e-16
  outer loop
    vertex -569.9726379792378 656.325355231406 12.577431808106908
    vertex -569.9726379792378 657.1337509647714 5.0799999999577725
    vertex -569.9726379792378 657.1337509647714 11.000000000027457
  endloop
endfacet
facet normal 1.0 -6.482418879075351e-18 1.0212327171848993e-16
  outer loop
    vertex -569.9726379792378 620.2892250467373 12.577418886944708
    vertex -569.9726379792379 638.318148393376 9.448888739433679
    vertex -569.9726379792378 656.325355231406 12.577431808106908
  endloop
endfacet
facet normal 1.0 -6.482418879075351e-18 1.0212327171848993e-16
  outer loop
    vertex -569.9726379792379 638.318148393376 9.448888739433679
    vertex -569.9726379792378 620.2892250467373 12.577418886944708
    vertex -569.9726379792379 637.9563769610296 9.299038105676726
  endloop
endfacet
facet normal 1.0 -6.482418879075351e-18 1.0212327171848993e-16
  outer loop
    vertex -569.9726379792379 637.9563769610296 9.299038105676726
    vertex -569.9726379792378 620.2892250467373 12.577418886944708
    vertex -569.9726379792379 637.6457167892498 9.060660171779888
  endloop
endfacet
facet normal 1.0 -6.482418879075351e-18 1.0212327171848993e-16
  outer loop
    vertex -569.9726379792379 637.6457167892498 9.060660171779888
    vertex -569.9726379792378 620.2892250467373 12.577418886944708
    vertex -569.9726379792379 637.407338855353 8.750000000000062
  endloop
endfacet
facet normal 1.0 -6.482418879075351e-18 1.0212327171848993e-16
  outer loop
    vertex -569.9726379792379 637.407338855353 8.750000000000062
    vertex -569.9726379792378 620.2892250467373 12.577418886944708
    vertex -569.9726379792379 637.2574882215962 8.388228567653842
  endloop
endfacet
facet normal 1.0 -6.482418879075351e-18 1.0212327171848993e-16
  outer loop
    vertex -569.9726379792379 637.2574882215962 8.388228567653842
    vertex -569.9726379792378 620.2892250467373 12.577418886944708
    vertex -569.9726379792379 637.2063769610296 8.000000000000053
  endloop
endfacet
facet normal 1.0 -6.482418879075351e-18 1.0212327171848993e-16
  outer loop
    vertex -569.9726379792378 656.325355231406 12.577431808106908
    vertex -569.9726379792379 638.318148393376 9.448888739433679
    vertex -569.9726379792379 638.7063769610296 9.500000000000073
  endloop
endfacet
facet normal 1.0 -6.482418879075351e-18 1.0212327171848993e-16
  outer loop
    vertex -569.9726379792378 656.325355231406 12.577431808106908
    vertex -569.9726379792379 638.7063769610296 9.500000000000073
    vertex -569.9726379792379 639.0946055286836 9.448888739433679
  endloop
endfacet
facet normal 1.0 -6.482418879075351e-18 1.0212327171848993e-16
  outer loop
    vertex -569.9726379792378 656.325355231406 12.577431808106908
    vertex -569.9726379792379 639.0946055286836 9.448888739433679
    vertex -569.9726379792379 639.4563769610297 9.299038105676726
  endloop
endfacet
facet normal 1.0 -6.482418879075351e-18 1.0212327171848993e-16
  outer loop
    vertex -569.9726379792378 656.325355231406 12.577431808106908
    vertex -569.9726379792379 639.4563769610297 9.299038105676726
    vertex -569.9726379792379 639.7670371328096 9.060660171779888
  endloop
endfacet
facet normal 1.0 -6.482418879075351e-18 1.0212327171848993e-16
  outer loop
    vertex -569.9726379792378 656.325355231406 12.577431808106908
    vertex -569.9726379792379 639.7670371328096 9.060660171779888
    vertex -569.9726379792379 640.0054150667064 8.750000000000062
  endloop
endfacet
facet normal 1.0 -6.482418879075351e-18 1.0212327171848993e-16
  outer loop
    vertex -569.9726379792378 656.325355231406 12.577431808106908
    vertex -569.9726379792379 640.0054150667064 8.750000000000062
    vertex -569.9726379792379 640.1552657004634 8.388228567653842
  endloop
endfacet
facet normal 1.0 -6.482418879075351e-18 1.0212327171848993e-16
  outer loop
    vertex -569.9726379792378 656.325355231406 12.577431808106908
    vertex -569.9726379792379 640.1552657004634 8.388228567653842
    vertex -569.9726379792379 640.2063769610297 8.000000000000053
  endloop
endfacet
facet normal 0.7071067811800666 -1.2968653464473745e-15 0.7071067811930285
  outer loop
    vertex -569.972637979239 620.2892250467373 0.0
    vertex -572.207837979239 657.1337509647714 2.235199999958988
    vertex -572.207837979239 620.2646476905938 2.235199999958988
  endloop
endfacet
facet normal 0.7071067811800666 -1.2968653464473745e-15 0.7071067811930285
  outer loop
    vertex -572.207837979239 657.1337509647714 2.235199999958988
    vertex -569.972637979239 620.2892250467373 0.0
    vertex -569.972637979239 657.1337509647714 0.0
  endloop
endfacet
facet normal 1.0 -1.835661558618674e-15 -3.3306690738792875e-13
  outer loop
    vertex -572.207837979239 657.1337509647714 2.235199999958988
    vertex -572.2078379792388 620.2646476905938 2.8447999999582896
    vertex -572.207837979239 620.2646476905938 2.235199999958988
  endloop
endfacet
facet normal 1.0 -1.835661558618674e-15 -3.3306690738792875e-13
  outer loop
    vertex -572.2078379792388 620.2646476905938 2.8447999999582896
    vertex -572.207837979239 657.1337509647714 2.235199999958988
    vertex -572.2078379792388 657.1337509647714 2.8447999999582896
  endloop
endfacet
facet normal 0.7071067811863192 0.0 -0.7071067811867758
  outer loop
    vertex -569.9726379792378 657.1337509647714 5.0799999999577725
    vertex -572.2078379792388 620.2646476905938 2.8447999999582896
    vertex -572.2078379792388 657.1337509647714 2.8447999999582896
  endloop
endfacet
facet normal 0.7071067811863192 0.0 -0.7071067811867758
  outer loop
    vertex -572.2078379792388 620.2646476905938 2.8447999999582896
    vertex -569.9726379792378 657.1337509647714 5.0799999999577725
    vertex -569.9726379792378 620.2646476905938 5.0799999999577725
  endloop
endfacet
facet normal 0.0 1.0 0.0
  outer loop
    vertex -575.8390692131043 657.1337509647714 2.235199999958988
    vertex -569.972637979239 657.1337509647714 0.0
    vertex -573.8390692131043 657.1337509647714 0.0
  endloop
endfacet
facet normal 0.0 1.0 0.0
  outer loop
    vertex -569.972637979239 657.1337509647714 0.0
    vertex -575.8390692131043 657.1337509647714 2.235199999958988
    vertex -572.207837979239 657.1337509647714 2.235199999958988
  endloop
endfacet
facet normal 0.0 1.0 0.0
  outer loop
    vertex -572.207837979239 657.1337509647714 2.235199999958988
    vertex -575.8390692131043 657.1337509647714 2.235199999958988
    vertex -575.8390692131043 657.1337509647714 11.000000000000092
  endloop
endfacet
facet normal 0.0 1.0 0.0
  outer loop
    vertex -572.207837979239 657.1337509647714 2.235199999958988
    vertex -575.8390692131043 657.1337509647714 11.000000000000092
    vertex -572.2078379792388 657.1337509647714 2.8447999999582896
  endloop
endfacet
facet normal 0.0 1.0 0.0
  outer loop
    vertex -572.2078379792388 657.1337509647714 2.8447999999582896
    vertex -575.8390692131043 657.1337509647714 11.000000000000092
    vertex -569.9726379792378 657.1337509647714 5.0799999999577725
  endloop
endfacet
facet normal 0.0 1.0 0.0
  outer loop
    vertex -569.9726379792378 657.1337509647714 5.0799999999577725
    vertex -575.8390692131043 657.1337509647714 11.000000000000092
    vertex -569.9726379792378 657.1337509647714 11.000000000027457
  endloop
endfacet
facet normal 0.0 0.0 -1.0
  outer loop
    vertex -569.972637979239 657.1337509647714 0.0
    vertex -573.8390692131043 620.2892250467373 0.0
    vertex -573.8390692131043 657.1337509647714 0.0
  endloop
endfacet
facet normal 0.0 0.0 -1.0
  outer loop
    vertex -573.8390692131043 620.2892250467373 0.0
    vertex -569.972637979239 657.1337509647714 0.0
    vertex -569.972637979239 620.2892250467373 0.0
  endloop
endfacet
facet normal -2.414772542378655e-06 0.8899383227117278 0.4560808938809055
  outer loop
    vertex -575.8390692131043 656.325330017202 12.577418886944708
    vertex -569.9726379792378 657.1337509647714 11.000000000027457
    vertex -575.8390692131043 657.1337509647714 11.000000000000092
  endloop
endfacet
facet normal -2.414772542378655e-06 0.8899383227117278 0.4560808938809055
  outer loop
    vertex -569.9726379792378 657.1337509647714 11.000000000027457
    vertex -575.8390692131043 656.325330017202 12.577418886944708
    vertex -569.9726379792378 656.325355231406 12.577431808106908
  endloop
endfacet
facet normal -1.0830084636642972e-06 -1.6993200035041276e-07 0.9999999999993991
  outer loop
    vertex -569.9726379792378 620.2892250467373 12.577418886944708
    vertex -575.8390692131043 656.325330017202 12.577418886944708
    vertex -575.8390692131043 620.2892250467373 12.577418886944708
  endloop
endfacet
facet normal -1.0830084636642972e-06 -1.6993200035041276e-07 0.9999999999993991
  outer loop
    vertex -575.8390692131043 656.325330017202 12.577418886944708
    vertex -569.9726379792378 620.2892250467373 12.577418886944708
    vertex -569.9726379792378 656.325355231406 12.577431808106908
  endloop
endfacet
facet normal -1.0 1.3693188002235701e-17 -2.5432688317426264e-16
  outer loop
    vertex -575.8390692131043 620.2892250467373 12.577418886944708
    vertex -575.8390692131043 635.8085994821624 8.776457135307622
    vertex -575.8390692131043 635.7063769610297 8.000000000000053
  endloop
endfacet
facet normal -1.0 1.3693188002235701e-17 -2.5432688317426264e-16
  outer loop
    vertex -575.8390692131043 635.8085994821624 8.776457135307622
    vertex -575.8390692131043 620.2892250467373 12.577418886944708
    vertex -575.8390692131043 636.1083007496765 9.50000000000005
  endloop
endfacet
facet normal -1.0 1.3693188002235701e-17 -2.5432688317426264e-16
  outer loop
    vertex -575.8390692131043 636.1083007496765 9.50000000000005
    vertex -575.8390692131043 620.2892250467373 12.577418886944708
    vertex -575.8390692131043 636.5850566174701 10.12132034355969
  endloop
endfacet
facet normal -1.0 1.3693188002235701e-17 -2.5432688317426264e-16
  outer loop
    vertex -575.8390692131043 636.5850566174701 10.12132034355969
    vertex -575.8390692131043 620.2892250467373 12.577418886944708
    vertex -575.8390692131043 637.2063769610297 10.598076211353366
  endloop
endfacet
facet normal -1.0 1.3693188002235701e-17 -2.5432688317426264e-16
  outer loop
    vertex -575.8390692131043 637.2063769610297 10.598076211353366
    vertex -575.8390692131043 620.2892250467373 12.577418886944708
    vertex -575.8390692131043 637.9299198257221 10.897777478867258
  endloop
endfacet
facet normal -1.0 1.3693188002235701e-17 -2.5432688317426264e-16
  outer loop
    vertex -575.8390692131043 637.9299198257221 10.897777478867258
    vertex -575.8390692131043 620.2892250467373 12.577418886944708
    vertex -575.8390692131043 638.7063769610296 11.000000000000048
  endloop
endfacet
facet normal -1.0 1.3693188002235701e-17 -2.5432688317426264e-16
  outer loop
    vertex -575.8390692131043 638.7063769610296 11.000000000000048
    vertex -575.8390692131043 620.2892250467373 12.577418886944708
    vertex -575.8390692131043 656.325330017202 12.577418886944708
  endloop
endfacet
facet normal -1.0 1.3693188002235701e-17 -2.5432688317426264e-16
  outer loop
    vertex -575.8390692131043 638.7063769610296 11.000000000000048
    vertex -575.8390692131043 656.325330017202 12.577418886944708
    vertex -575.8390692131043 639.4828340963372 10.897777478867246
  endloop
endfacet
facet normal -1.0 1.3693188002235701e-17 -2.5432688317426264e-16
  outer loop
    vertex -575.8390692131043 639.4828340963372 10.897777478867246
    vertex -575.8390692131043 656.325330017202 12.577418886944708
    vertex -575.8390692131043 640.2063769610297 10.598076211353366
  endloop
endfacet
facet normal -1.0 1.3693188002235701e-17 -2.5432688317426264e-16
  outer loop
    vertex -575.8390692131043 640.2063769610297 10.598076211353366
    vertex -575.8390692131043 656.325330017202 12.577418886944708
    vertex -575.8390692131043 640.8276973045894 10.12132034355969
  endloop
endfacet
facet normal -1.0 1.3693188002235701e-17 -2.5432688317426264e-16
  outer loop
    vertex -575.8390692131043 640.8276973045894 10.12132034355969
    vertex -575.8390692131043 656.325330017202 12.577418886944708
    vertex -575.8390692131043 641.304453172383 9.50000000000005
  endloop
endfacet
facet normal -1.0 1.3693188002235701e-17 -2.5432688317426264e-16
  outer loop
    vertex -575.8390692131043 641.304453172383 9.50000000000005
    vertex -575.8390692131043 656.325330017202 12.577418886944708
    vertex -575.8390692131043 641.6041544398969 8.77645713530761
  endloop
endfacet
facet normal -1.0 1.3693188002235701e-17 -2.5432688317426264e-16
  outer loop
    vertex -575.8390692131043 641.6041544398969 8.77645713530761
    vertex -575.8390692131043 656.325330017202 12.577418886944708
    vertex -575.8390692131043 641.7063769610297 8.000000000000053
  endloop
endfacet
facet normal -1.0 1.3693188002235701e-17 -2.5432688317426264e-16
  outer loop
    vertex -575.8390692131043 620.2892250467373 12.577418886944708
    vertex -575.8390692131043 620.2769363686656 2.235199999958988
    vertex -575.8390692131043 620.2646476905938 2.8447999999582896
  endloop
endfacet
facet normal -1.0 1.3693188002235701e-17 -2.5432688317426264e-16
  outer loop
    vertex -575.8390692131043 620.2769363686656 2.235199999958988
    vertex -575.8390692131043 620.2892250467373 12.577418886944708
    vertex -575.8390692131043 637.2063769610296 5.401923788646741
  endloop
endfacet
facet normal -1.0 1.3693188002235701e-17 -2.5432688317426264e-16
  outer loop
    vertex -575.8390692131043 620.2769363686656 2.235199999958988
    vertex -575.8390692131043 637.2063769610296 5.401923788646741
    vertex -575.8390692131043 637.9299198257221 5.102222521132848
  endloop
endfacet
facet normal -1.0 1.3693188002235701e-17 -2.5432688317426264e-16
  outer loop
    vertex -575.8390692131043 620.2769363686656 2.235199999958988
    vertex -575.8390692131043 637.9299198257221 5.102222521132848
    vertex -575.8390692131043 657.1337509647714 2.235199999958988
  endloop
endfacet
facet normal -1.0 1.3693188002235701e-17 -2.5432688317426264e-16
  outer loop
    vertex -575.8390692131043 637.2063769610296 5.401923788646741
    vertex -575.8390692131043 620.2892250467373 12.577418886944708
    vertex -575.8390692131043 636.5850566174701 5.878679656440417
  endloop
endfacet
facet normal -1.0 1.3693188002235701e-17 -2.5432688317426264e-16
  outer loop
    vertex -575.8390692131043 636.5850566174701 5.878679656440417
    vertex -575.8390692131043 620.2892250467373 12.577418886944708
    vertex -575.8390692131043 636.1083007496765 6.500000000000056
  endloop
endfacet
facet normal -1.0 1.3693188002235701e-17 -2.5432688317426264e-16
  outer loop
    vertex -575.8390692131043 636.1083007496765 6.500000000000056
    vertex -575.8390692131043 620.2892250467373 12.577418886944708
    vertex -575.8390692131043 635.8085994821624 7.223542864692496
  endloop
endfacet
facet normal -1.0 1.3693188002235701e-17 -2.5432688317426264e-16
  outer loop
    vertex -575.8390692131043 635.8085994821624 7.223542864692496
    vertex -575.8390692131043 620.2892250467373 12.577418886944708
    vertex -575.8390692131043 635.7063769610297 8.000000000000053
  endloop
endfacet
facet normal -1.0 1.3693188002235701e-17 -2.5432688317426264e-16
  outer loop
    vertex -575.8390692131043 657.1337509647714 2.235199999958988
    vertex -575.8390692131043 637.9299198257221 5.102222521132848
    vertex -575.8390692131043 638.7063769610296 5.000000000000059
  endloop
endfacet
facet normal -1.0 1.3693188002235701e-17 -2.5432688317426264e-16
  outer loop
    vertex -575.8390692131043 657.1337509647714 2.235199999958988
    vertex -575.8390692131043 638.7063769610296 5.000000000000059
    vertex -575.8390692131043 639.4828340963372 5.102222521132848
  endloop
endfacet
facet normal -1.0 1.3693188002235701e-17 -2.5432688317426264e-16
  outer loop
    vertex -575.8390692131043 657.1337509647714 2.235199999958988
    vertex -575.8390692131043 639.4828340963372 5.102222521132848
    vertex -575.8390692131043 640.2063769610297 5.401923788646741
  endloop
endfacet
facet normal -1.0 1.3693188002235701e-17 -2.5432688317426264e-16
  outer loop
    vertex -575.8390692131043 657.1337509647714 2.235199999958988
    vertex -575.8390692131043 640.2063769610297 5.401923788646741
    vertex -575.8390692131043 640.8276973045894 5.878679656440417
  endloop
endfacet
facet normal -1.0 1.3693188002235701e-17 -2.5432688317426264e-16
  outer loop
    vertex -575.8390692131043 657.1337509647714 2.235199999958988
    vertex -575.8390692131043 640.8276973045894 5.878679656440417
    vertex -575.8390692131043 641.304453172383 6.500000000000056
  endloop
endfacet
facet normal -1.0 1.3693188002235701e-17 -2.5432688317426264e-16
  outer loop
    vertex -575.8390692131043 657.1337509647714 2.235199999958988
    vertex -575.8390692131043 641.304453172383 6.500000000000056
    vertex -575.8390692131043 641.6041544398969 7.223542864692496
  endloop
endfacet
facet normal -1.0 1.3693188002235701e-17 -2.5432688317426264e-16
  outer loop
    vertex -575.8390692131043 657.1337509647714 2.235199999958988
    vertex -575.8390692131043 641.6041544398969 7.223542864692496
    vertex -575.8390692131043 641.7063769610297 8.000000000000053
  endloop
endfacet
facet normal -1.0 1.3693188002235701e-17 -2.5432688317426264e-16
  outer loop
    vertex -575.8390692131043 657.1337509647714 2.235199999958988
    vertex -575.8390692131043 641.7063769610297 8.000000000000053
    vertex -575.8390692131043 656.325330017202 12.577418886944708
  endloop
endfacet
facet normal -1.0 1.3693188002235701e-17 -2.5432688317426264e-16
  outer loop
    vertex -575.8390692131043 657.1337509647714 2.235199999958988
    vertex -575.8390692131043 656.325330017202 12.577418886944708
    vertex -575.8390692131043 657.1337509647714 11.000000000000092
  endloop
endfacet
facet normal -0.7452273616294988 1.1484135761440084e-16 -0.6668104524366248
  outer loop
    vertex -575.8390692131043 657.1337509647714 2.235199999958988
    vertex -573.8390692131043 620.2892250467373 0.0
    vertex -575.8390692131043 620.2769363686656 2.235199999958988
  endloop
endfacet
facet normal -0.7452273616294988 1.1484135761440084e-16 -0.6668104524366248
  outer loop
    vertex -573.8390692131043 620.2892250467373 0.0
    vertex -575.8390692131043 657.1337509647714 2.235199999958988
    vertex -573.8390692131043 657.1337509647714 0.0
  endloop
endfacet
facet normal -1.0 4.1469629746402275e-31 -2.296589831131396e-16
  outer loop
    vertex -572.8390692131043 635.8085994821624 8.776457135307622
    vertex -572.8390692131043 635.8085994821624 7.223542864692496
    vertex -572.8390692131043 635.7063769610297 8.000000000000053
  endloop
endfacet
facet normal -1.0 4.1469629746402275e-31 -2.296589831131396e-16
  outer loop
    vertex -572.8390692131043 635.8085994821624 7.223542864692496
    vertex -572.8390692131043 635.8085994821624 8.776457135307622
    vertex -572.8390692131043 636.1083007496765 9.50000000000005
  endloop
endfacet
facet normal -1.0 4.1469629746402275e-31 -2.296589831131396e-16
  outer loop
    vertex -572.8390692131043 635.8085994821624 7.223542864692496
    vertex -572.8390692131043 636.1083007496765 9.50000000000005
    vertex -572.8390692131043 636.1083007496765 6.500000000000056
  endloop
endfacet
facet normal -1.0 4.1469629746402275e-31 -2.296589831131396e-16
  outer loop
    vertex -572.8390692131043 636.1083007496765 6.500000000000056
    vertex -572.8390692131043 636.1083007496765 9.50000000000005
    vertex -572.8390692131043 636.5850566174701 10.12132034355969
  endloop
endfacet
facet normal -1.0 4.1469629746402275e-31 -2.296589831131396e-16
  outer loop
    vertex -572.8390692131043 636.1083007496765 6.500000000000056
    vertex -572.8390692131043 636.5850566174701 10.12132034355969
    vertex -572.8390692131043 636.5850566174701 5.878679656440417
  endloop
endfacet
facet normal -1.0 4.1469629746402275e-31 -2.296589831131396e-16
  outer loop
    vertex -572.8390692131043 636.5850566174701 5.878679656440417
    vertex -572.8390692131043 636.5850566174701 10.12132034355969
    vertex -572.8390692131043 637.2063769610297 10.598076211353366
  endloop
endfacet
facet normal -1.0 4.1469629746402275e-31 -2.296589831131396e-16
  outer loop
    vertex -572.8390692131043 636.5850566174701 5.878679656440417
    vertex -572.8390692131043 637.2063769610297 10.598076211353366
    vertex -572.8390692131043 637.2063769610296 8.000000000000053
  endloop
endfacet
facet normal -1.0 4.1469629746402275e-31 -2.296589831131396e-16
  outer loop
    vertex -572.8390692131043 637.2063769610296 8.000000000000053
    vertex -572.8390692131043 637.2063769610297 10.598076211353366
    vertex -572.8390692131043 637.2574882215962 8.388228567653842
  endloop
endfacet
facet normal -1.0 4.1469629746402275e-31 -2.296589831131396e-16
  outer loop
    vertex -572.8390692131043 637.2574882215962 8.388228567653842
    vertex -572.8390692131043 637.2063769610297 10.598076211353366
    vertex -572.8390692131043 637.9299198257221 10.897777478867258
  endloop
endfacet
facet normal -1.0 4.1469629746402275e-31 -2.296589831131396e-16
  outer loop
    vertex -572.8390692131043 637.2574882215962 8.388228567653842
    vertex -572.8390692131043 637.9299198257221 10.897777478867258
    vertex -572.8390692131043 637.407338855353 8.750000000000062
  endloop
endfacet
facet normal -1.0 4.1469629746402275e-31 -2.296589831131396e-16
  outer loop
    vertex -572.8390692131043 637.407338855353 8.750000000000062
    vertex -572.8390692131043 637.9299198257221 10.897777478867258
    vertex -572.8390692131043 637.6457167892498 9.060660171779888
  endloop
endfacet
facet normal -1.0 4.1469629746402275e-31 -2.296589831131396e-16
  outer loop
    vertex -572.8390692131043 637.6457167892498 9.060660171779888
    vertex -572.8390692131043 637.9299198257221 10.897777478867258
    vertex -572.8390692131043 637.9563769610296 9.299038105676726
  endloop
endfacet
facet normal -1.0 4.1469629746402275e-31 -2.296589831131396e-16
  outer loop
    vertex -572.8390692131043 637.9563769610296 9.299038105676726
    vertex -572.8390692131043 637.9299198257221 10.897777478867258
    vertex -572.8390692131043 638.7063769610296 11.000000000000048
  endloop
endfacet
facet normal -1.0 4.1469629746402275e-31 -2.296589831131396e-16
  outer loop
    vertex -572.8390692131043 637.9563769610296 9.299038105676726
    vertex -572.8390692131043 638.7063769610296 11.000000000000048
    vertex -572.8390692131043 638.318148393376 9.448888739433679
  endloop
endfacet
facet normal -1.0 4.1469629746402275e-31 -2.296589831131396e-16
  outer loop
    vertex -572.8390692131043 638.318148393376 9.448888739433679
    vertex -572.8390692131043 638.7063769610296 11.000000000000048
    vertex -572.8390692131043 638.7063769610296 9.500000000000073
  endloop
endfacet
facet normal -1.0 4.1469629746402275e-31 -2.296589831131396e-16
  outer loop
    vertex -572.8390692131043 638.7063769610296 9.500000000000073
    vertex -572.8390692131043 638.7063769610296 11.000000000000048
    vertex -572.8390692131043 639.4828340963372 10.897777478867246
  endloop
endfacet
facet normal -1.0 4.1469629746402275e-31 -2.296589831131396e-16
  outer loop
    vertex -572.8390692131043 638.7063769610296 9.500000000000073
    vertex -572.8390692131043 639.4828340963372 10.897777478867246
    vertex -572.8390692131043 639.0946055286836 9.448888739433679
  endloop
endfacet
facet normal -1.0 4.1469629746402275e-31 -2.296589831131396e-16
  outer loop
    vertex -572.8390692131043 639.0946055286836 9.448888739433679
    vertex -572.8390692131043 639.4828340963372 10.897777478867246
    vertex -572.8390692131043 639.4563769610297 9.299038105676726
  endloop
endfacet
facet normal -1.0 4.1469629746402275e-31 -2.296589831131396e-16
  outer loop
    vertex -572.8390692131043 639.4563769610297 9.299038105676726
    vertex -572.8390692131043 639.4828340963372 10.897777478867246
    vertex -572.8390692131043 639.7670371328096 9.060660171779888
  endloop
endfacet
facet normal -1.0 4.1469629746402275e-31 -2.296589831131396e-16
  outer loop
    vertex -572.8390692131043 639.7670371328096 9.060660171779888
    vertex -572.8390692131043 639.4828340963372 10.897777478867246
    vertex -572.8390692131043 640.2063769610297 10.598076211353366
  endloop
endfacet
facet normal -1.0 4.1469629746402275e-31 -2.296589831131396e-16
  outer loop
    vertex -572.8390692131043 639.7670371328096 9.060660171779888
    vertex -572.8390692131043 640.2063769610297 10.598076211353366
    vertex -572.8390692131043 640.0054150667064 8.750000000000062
  endloop
endfacet
facet normal -1.0 4.1469629746402275e-31 -2.296589831131396e-16
  outer loop
    vertex -572.8390692131043 640.0054150667064 8.750000000000062
    vertex -572.8390692131043 640.2063769610297 10.598076211353366
    vertex -572.8390692131043 640.1552657004634 8.388228567653842
  endloop
endfacet
facet normal -1.0 4.1469629746402275e-31 -2.296589831131396e-16
  outer loop
    vertex -572.8390692131043 640.1552657004634 8.388228567653842
    vertex -572.8390692131043 640.2063769610297 10.598076211353366
    vertex -572.8390692131043 640.2063769610297 8.000000000000053
  endloop
endfacet
facet normal -1.0 4.1469629746402275e-31 -2.296589831131396e-16
  outer loop
    vertex -572.8390692131043 640.2063769610297 8.000000000000053
    vertex -572.8390692131043 640.2063769610297 10.598076211353366
    vertex -572.8390692131043 640.8276973045894 10.12132034355969
  endloop
endfacet
facet normal -1.0 4.1469629746402275e-31 -2.296589831131396e-16
  outer loop
    vertex -572.8390692131043 640.2063769610297 8.000000000000053
    vertex -572.8390692131043 640.8276973045894 10.12132034355969
    vertex -572.8390692131043 640.2063769610297 5.401923788646741
  endloop
endfacet
facet normal -1.0 4.1469629746402275e-31 -2.296589831131396e-16
  outer loop
    vertex -572.8390692131043 640.2063769610297 5.401923788646741
    vertex -572.8390692131043 640.8276973045894 10.12132034355969
    vertex -572.8390692131043 640.8276973045894 5.878679656440417
  endloop
endfacet
facet normal -1.0 4.1469629746402275e-31 -2.296589831131396e-16
  outer loop
    vertex -572.8390692131043 640.8276973045894 5.878679656440417
    vertex -572.8390692131043 640.8276973045894 10.12132034355969
    vertex -572.8390692131043 641.304453172383 9.50000000000005
  endloop
endfacet
facet normal -1.0 4.1469629746402275e-31 -2.296589831131396e-16
  outer loop
    vertex -572.8390692131043 640.8276973045894 5.878679656440417
    vertex -572.8390692131043 641.304453172383 9.50000000000005
    vertex -572.8390692131043 641.304453172383 6.500000000000056
  endloop
endfacet
facet normal -1.0 4.1469629746402275e-31 -2.296589831131396e-16
  outer loop
    vertex -572.8390692131043 641.304453172383 6.500000000000056
    vertex -572.8390692131043 641.304453172383 9.50000000000005
    vertex -572.8390692131043 641.6041544398969 8.77645713530761
  endloop
endfacet
facet normal -1.0 4.1469629746402275e-31 -2.296589831131396e-16
  outer loop
    vertex -572.8390692131043 641.304453172383 6.500000000000056
    vertex -572.8390692131043 641.6041544398969 8.77645713530761
    vertex -572.8390692131043 641.6041544398969 7.223542864692496
  endloop
endfacet
facet normal -1.0 4.1469629746402275e-31 -2.296589831131396e-16
  outer loop
    vertex -572.8390692131043 641.6041544398969 7.223542864692496
    vertex -572.8390692131043 641.6041544398969 8.77645713530761
    vertex -572.8390692131043 641.7063769610297 8.000000000000053
  endloop
endfacet
facet normal -1.0 4.1469629746402275e-31 -2.296589831131396e-16
  outer loop
    vertex -572.8390692131043 637.2063769610296 8.000000000000053
    vertex -572.8390692131043 637.2063769610296 5.401923788646741
    vertex -572.8390692131043 636.5850566174701 5.878679656440417
  endloop
endfacet
facet normal -1.0 4.1469629746402275e-31 -2.296589831131396e-16
  outer loop
    vertex -572.8390692131043 637.2063769610296 5.401923788646741
    vertex -572.8390692131043 637.2063769610296 8.000000000000053
    vertex -572.8390692131043 637.2574882215962 7.611771432346263
  endloop
endfacet
facet normal -1.0 4.1469629746402275e-31 -2.296589831131396e-16
  outer loop
    vertex -572.8390692131043 637.2063769610296 5.401923788646741
    vertex -572.8390692131043 637.2574882215962 7.611771432346263
    vertex -572.8390692131043 637.9299198257221 5.102222521132848
  endloop
endfacet
facet normal -1.0 4.1469629746402275e-31 -2.296589831131396e-16
  outer loop
    vertex -572.8390692131043 637.9299198257221 5.102222521132848
    vertex -572.8390692131043 637.2574882215962 7.611771432346263
    vertex -572.8390692131043 637.407338855353 7.2500000000000435
  endloop
endfacet
facet normal -1.0 4.1469629746402275e-31 -2.296589831131396e-16
  outer loop
    vertex -572.8390692131043 637.9299198257221 5.102222521132848
    vertex -572.8390692131043 637.407338855353 7.2500000000000435
    vertex -572.8390692131043 637.6457167892498 6.939339828220218
  endloop
endfacet
facet normal -1.0 4.1469629746402275e-31 -2.296589831131396e-16
  outer loop
    vertex -572.8390692131043 637.9299198257221 5.102222521132848
    vertex -572.8390692131043 637.6457167892498 6.939339828220218
    vertex -572.8390692131043 637.9563769610296 6.70096189432338
  endloop
endfacet
facet normal -1.0 4.1469629746402275e-31 -2.296589831131396e-16
  outer loop
    vertex -572.8390692131043 637.9299198257221 5.102222521132848
    vertex -572.8390692131043 637.9563769610296 6.70096189432338
    vertex -572.8390692131043 638.7063769610296 5.000000000000059
  endloop
endfacet
facet normal -1.0 4.1469629746402275e-31 -2.296589831131396e-16
  outer loop
    vertex -572.8390692131043 638.7063769610296 5.000000000000059
    vertex -572.8390692131043 637.9563769610296 6.70096189432338
    vertex -572.8390692131043 638.318148393376 6.551111260566428
  endloop
endfacet
facet normal -1.0 4.1469629746402275e-31 -2.296589831131396e-16
  outer loop
    vertex -572.8390692131043 638.7063769610296 5.000000000000059
    vertex -572.8390692131043 638.318148393376 6.551111260566428
    vertex -572.8390692131043 638.7063769610296 6.500000000000033
  endloop
endfacet
facet normal -1.0 4.1469629746402275e-31 -2.296589831131396e-16
  outer loop
    vertex -572.8390692131043 638.7063769610296 5.000000000000059
    vertex -572.8390692131043 638.7063769610296 6.500000000000033
    vertex -572.8390692131043 639.0946055286836 6.551111260566428
  endloop
endfacet
facet normal -1.0 4.1469629746402275e-31 -2.296589831131396e-16
  outer loop
    vertex -572.8390692131043 638.7063769610296 5.000000000000059
    vertex -572.8390692131043 639.0946055286836 6.551111260566428
    vertex -572.8390692131043 639.4828340963372 5.102222521132848
  endloop
endfacet
facet normal -1.0 4.1469629746402275e-31 -2.296589831131396e-16
  outer loop
    vertex -572.8390692131043 639.4828340963372 5.102222521132848
    vertex -572.8390692131043 639.0946055286836 6.551111260566428
    vertex -572.8390692131043 639.4563769610297 6.70096189432338
  endloop
endfacet
facet normal -1.0 4.1469629746402275e-31 -2.296589831131396e-16
  outer loop
    vertex -572.8390692131043 639.4828340963372 5.102222521132848
    vertex -572.8390692131043 639.4563769610297 6.70096189432338
    vertex -572.8390692131043 639.7670371328096 6.939339828220218
  endloop
endfacet
facet normal -1.0 4.1469629746402275e-31 -2.296589831131396e-16
  outer loop
    vertex -572.8390692131043 639.4828340963372 5.102222521132848
    vertex -572.8390692131043 639.7670371328096 6.939339828220218
    vertex -572.8390692131043 640.2063769610297 5.401923788646741
  endloop
endfacet
facet normal -1.0 4.1469629746402275e-31 -2.296589831131396e-16
  outer loop
    vertex -572.8390692131043 640.2063769610297 5.401923788646741
    vertex -572.8390692131043 639.7670371328096 6.939339828220218
    vertex -572.8390692131043 640.0054150667064 7.2500000000000435
  endloop
endfacet
facet normal -1.0 4.1469629746402275e-31 -2.296589831131396e-16
  outer loop
    vertex -572.8390692131043 640.2063769610297 5.401923788646741
    vertex -572.8390692131043 640.0054150667064 7.2500000000000435
    vertex -572.8390692131043 640.1552657004634 7.611771432346263
  endloop
endfacet
facet normal -1.0 4.1469629746402275e-31 -2.296589831131396e-16
  outer loop
    vertex -572.8390692131043 640.2063769610297 5.401923788646741
    vertex -572.8390692131043 640.1552657004634 7.611771432346263
    vertex -572.8390692131043 640.2063769610297 8.000000000000053
  endloop
endfacet
facet normal 2.997651257488544e-17 -0.9914448613738113 -0.13052619222004555
  outer loop
    vertex -572.8390692131043 641.6041544398969 8.77645713530761
    vertex -575.8390692131043 641.7063769610297 8.000000000000053
    vertex -572.8390692131043 641.7063769610297 8.000000000000053
  endloop
endfacet
facet normal 2.997651257488544e-17 -0.9914448613738113 -0.13052619222004555
  outer loop
    vertex -575.8390692131043 641.7063769610297 8.000000000000053
    vertex -572.8390692131043 641.6041544398969 8.77645713530761
    vertex -575.8390692131043 641.6041544398969 8.77645713530761
  endloop
endfacet
facet normal -2.997651257488626e-17 -0.9914448613738113 0.13052619222004555
  outer loop
    vertex -572.8390692131043 641.7063769610297 8.000000000000053
    vertex -575.8390692131043 641.6041544398969 7.223542864692496
    vertex -572.8390692131043 641.6041544398969 7.223542864692496
  endloop
endfacet
facet normal -2.997651257488626e-17 -0.9914448613738113 0.13052619222004555
  outer loop
    vertex -575.8390692131043 641.6041544398969 7.223542864692496
    vertex -572.8390692131043 641.7063769610297 8.000000000000053
    vertex -575.8390692131043 641.7063769610297 8.000000000000053
  endloop
endfacet
facet normal -8.788668793121641e-17 -0.9238795325112803 0.3826834323651054
  outer loop
    vertex -572.8390692131043 641.6041544398969 7.223542864692496
    vertex -575.8390692131043 641.304453172383 6.500000000000056
    vertex -572.8390692131043 641.304453172383 6.500000000000056
  endloop
endfacet
facet normal -8.788668793121641e-17 -0.9238795325112803 0.3826834323651054
  outer loop
    vertex -575.8390692131043 641.304453172383 6.500000000000056
    vertex -572.8390692131043 641.6041544398969 7.223542864692496
    vertex -575.8390692131043 641.6041544398969 7.223542864692496
  endloop
endfacet
facet normal -1.3980753074464148e-16 -0.7933533402912465 0.6087614290087061
  outer loop
    vertex -572.8390692131043 641.304453172383 6.500000000000056
    vertex -575.8390692131043 640.8276973045894 5.878679656440417
    vertex -572.8390692131043 640.8276973045894 5.878679656440417
  endloop
endfacet
facet normal -1.3980753074464148e-16 -0.7933533402912465 0.6087614290087061
  outer loop
    vertex -575.8390692131043 640.8276973045894 5.878679656440417
    vertex -572.8390692131043 641.304453172383 6.500000000000056
    vertex -575.8390692131043 641.304453172383 6.500000000000056
  endloop
endfacet
facet normal -1.82200721380701e-16 -0.6087614290087033 0.7933533402912485
  outer loop
    vertex -572.8390692131043 640.2063769610297 5.401923788646741
    vertex -575.8390692131043 640.8276973045894 5.878679656440417
    vertex -575.8390692131043 640.2063769610297 5.401923788646741
  endloop
endfacet
facet normal -1.82200721380701e-16 -0.6087614290087033 0.7933533402912485
  outer loop
    vertex -575.8390692131043 640.8276973045894 5.878679656440417
    vertex -572.8390692131043 640.2063769610297 5.401923788646741
    vertex -572.8390692131043 640.8276973045894 5.878679656440417
  endloop
endfacet
facet normal -2.1217723395558377e-16 -0.3826834323651033 0.9238795325112812
  outer loop
    vertex -572.8390692131043 639.4828340963372 5.102222521132848
    vertex -575.8390692131043 640.2063769610297 5.401923788646741
    vertex -575.8390692131043 639.4828340963372 5.102222521132848
  endloop
endfacet
facet normal -2.1217723395558377e-16 -0.3826834323651033 0.9238795325112812
  outer loop
    vertex -575.8390692131043 640.2063769610297 5.401923788646741
    vertex -572.8390692131043 639.4828340963372 5.102222521132848
    vertex -572.8390692131043 640.2063769610297 5.401923788646741
  endloop
endfacet
facet normal -2.2769421867585717e-16 -0.13052619222004555 0.9914448613738113
  outer loop
    vertex -572.8390692131043 638.7063769610296 5.000000000000059
    vertex -575.8390692131043 639.4828340963372 5.102222521132848
    vertex -575.8390692131043 638.7063769610296 5.000000000000059
  endloop
endfacet
facet normal -2.2769421867585717e-16 -0.13052619222004555 0.9914448613738113
  outer loop
    vertex -575.8390692131043 639.4828340963372 5.102222521132848
    vertex -572.8390692131043 638.7063769610296 5.000000000000059
    vertex -572.8390692131043 639.4828340963372 5.102222521132848
  endloop
endfacet
facet normal -2.2769421867585707e-16 0.13052619222004555 0.9914448613738113
  outer loop
    vertex -572.8390692131043 637.9299198257221 5.102222521132848
    vertex -575.8390692131043 638.7063769610296 5.000000000000059
    vertex -575.8390692131043 637.9299198257221 5.102222521132848
  endloop
endfacet
facet normal -2.2769421867585707e-16 0.13052619222004555 0.9914448613738113
  outer loop
    vertex -575.8390692131043 638.7063769610296 5.000000000000059
    vertex -572.8390692131043 637.9299198257221 5.102222521132848
    vertex -572.8390692131043 638.7063769610296 5.000000000000059
  endloop
endfacet
facet normal -2.1217723395558542e-16 0.38268343236508295 0.9238795325112896
  outer loop
    vertex -572.8390692131043 637.2063769610296 5.401923788646741
    vertex -575.8390692131043 637.9299198257221 5.102222521132848
    vertex -575.8390692131043 637.2063769610296 5.401923788646741
  endloop
endfacet
facet normal -2.1217723395558542e-16 0.38268343236508295 0.9238795325112896
  outer loop
    vertex -575.8390692131043 637.9299198257221 5.102222521132848
    vertex -572.8390692131043 637.2063769610296 5.401923788646741
    vertex -572.8390692131043 637.9299198257221 5.102222521132848
  endloop
endfacet
facet normal -1.822007213806956e-16 0.6087614290087312 0.7933533402912273
  outer loop
    vertex -572.8390692131043 636.5850566174701 5.878679656440417
    vertex -575.8390692131043 637.2063769610296 5.401923788646741
    vertex -575.8390692131043 636.5850566174701 5.878679656440417
  endloop
endfacet
facet normal -1.822007213806956e-16 0.6087614290087312 0.7933533402912273
  outer loop
    vertex -575.8390692131043 637.2063769610296 5.401923788646741
    vertex -572.8390692131043 636.5850566174701 5.878679656440417
    vertex -572.8390692131043 637.2063769610296 5.401923788646741
  endloop
endfacet
facet normal -1.3980753074464084e-16 0.7933533402912465 0.6087614290087061
  outer loop
    vertex -575.8390692131043 636.1083007496765 6.500000000000056
    vertex -572.8390692131043 636.5850566174701 5.878679656440417
    vertex -575.8390692131043 636.5850566174701 5.878679656440417
  endloop
endfacet
facet normal -1.3980753074464084e-16 0.7933533402912465 0.6087614290087061
  outer loop
    vertex -572.8390692131043 636.5850566174701 5.878679656440417
    vertex -575.8390692131043 636.1083007496765 6.500000000000056
    vertex -572.8390692131043 636.1083007496765 6.500000000000056
  endloop
endfacet
facet normal -8.788668793121564e-17 0.9238795325112803 0.3826834323651054
  outer loop
    vertex -575.8390692131043 635.8085994821624 7.223542864692496
    vertex -572.8390692131043 636.1083007496765 6.500000000000056
    vertex -575.8390692131043 636.1083007496765 6.500000000000056
  endloop
endfacet
facet normal -8.788668793121564e-17 0.9238795325112803 0.3826834323651054
  outer loop
    vertex -572.8390692131043 636.1083007496765 6.500000000000056
    vertex -575.8390692131043 635.8085994821624 7.223542864692496
    vertex -572.8390692131043 635.8085994821624 7.223542864692496
  endloop
endfacet
facet normal -2.997651257488544e-17 0.9914448613738113 0.13052619222004555
  outer loop
    vertex -575.8390692131043 635.7063769610297 8.000000000000053
    vertex -572.8390692131043 635.8085994821624 7.223542864692496
    vertex -575.8390692131043 635.8085994821624 7.223542864692496
  endloop
endfacet
facet normal -2.997651257488544e-17 0.9914448613738113 0.13052619222004555
  outer loop
    vertex -572.8390692131043 635.8085994821624 7.223542864692496
    vertex -575.8390692131043 635.7063769610297 8.000000000000053
    vertex -572.8390692131043 635.7063769610297 8.000000000000053
  endloop
endfacet
facet normal 2.9976512574885834e-17 0.9914448613738116 -0.1305261922200437
  outer loop
    vertex -575.8390692131043 635.8085994821624 8.776457135307622
    vertex -572.8390692131043 635.7063769610297 8.000000000000053
    vertex -575.8390692131043 635.7063769610297 8.000000000000053
  endloop
endfacet
facet normal 2.9976512574885834e-17 0.9914448613738116 -0.1305261922200437
  outer loop
    vertex -572.8390692131043 635.7063769610297 8.000000000000053
    vertex -575.8390692131043 635.8085994821624 8.776457135307622
    vertex -572.8390692131043 635.8085994821624 8.776457135307622
  endloop
endfacet
facet normal 8.788668793121759e-17 0.9238795325112782 -0.3826834323651105
  outer loop
    vertex -575.8390692131043 636.1083007496765 9.50000000000005
    vertex -572.8390692131043 635.8085994821624 8.776457135307622
    vertex -575.8390692131043 635.8085994821624 8.776457135307622
  endloop
endfacet
facet normal 8.788668793121759e-17 0.9238795325112782 -0.3826834323651105
  outer loop
    vertex -572.8390692131043 635.8085994821624 8.776457135307622
    vertex -575.8390692131043 636.1083007496765 9.50000000000005
    vertex -572.8390692131043 636.1083007496765 9.50000000000005
  endloop
endfacet
facet normal 1.3980753074464148e-16 0.7933533402912465 -0.6087614290087061
  outer loop
    vertex -575.8390692131043 636.5850566174701 10.12132034355969
    vertex -572.8390692131043 636.1083007496765 9.50000000000005
    vertex -575.8390692131043 636.1083007496765 9.50000000000005
  endloop
endfacet
facet normal 1.3980753074464148e-16 0.7933533402912465 -0.6087614290087061
  outer loop
    vertex -572.8390692131043 636.1083007496765 9.50000000000005
    vertex -575.8390692131043 636.5850566174701 10.12132034355969
    vertex -572.8390692131043 636.5850566174701 10.12132034355969
  endloop
endfacet
facet normal 1.82200721380701e-16 0.6087614290087033 -0.7933533402912485
  outer loop
    vertex -572.8390692131043 637.2063769610297 10.598076211353366
    vertex -575.8390692131043 636.5850566174701 10.12132034355969
    vertex -575.8390692131043 637.2063769610297 10.598076211353366
  endloop
endfacet
facet normal 1.82200721380701e-16 0.6087614290087033 -0.7933533402912485
  outer loop
    vertex -575.8390692131043 636.5850566174701 10.12132034355969
    vertex -572.8390692131043 637.2063769610297 10.598076211353366
    vertex -572.8390692131043 636.5850566174701 10.12132034355969
  endloop
endfacet
facet normal 2.1217723395558377e-16 0.3826834323651033 -0.9238795325112812
  outer loop
    vertex -572.8390692131043 637.9299198257221 10.897777478867258
    vertex -575.8390692131043 637.2063769610297 10.598076211353366
    vertex -575.8390692131043 637.9299198257221 10.897777478867258
  endloop
endfacet
facet normal 2.1217723395558377e-16 0.3826834323651033 -0.9238795325112812
  outer loop
    vertex -575.8390692131043 637.2063769610297 10.598076211353366
    vertex -572.8390692131043 637.9299198257221 10.897777478867258
    vertex -572.8390692131043 637.2063769610297 10.598076211353366
  endloop
endfacet
facet normal 2.2769421867585717e-16 0.13052619222004555 -0.9914448613738113
  outer loop
    vertex -572.8390692131043 638.7063769610296 11.000000000000048
    vertex -575.8390692131043 637.9299198257221 10.897777478867258
    vertex -575.8390692131043 638.7063769610296 11.000000000000048
  endloop
endfacet
facet normal 2.2769421867585717e-16 0.13052619222004555 -0.9914448613738113
  outer loop
    vertex -575.8390692131043 637.9299198257221 10.897777478867258
    vertex -572.8390692131043 638.7063769610296 11.000000000000048
    vertex -572.8390692131043 637.9299198257221 10.897777478867258
  endloop
endfacet
facet normal 2.2769421867585663e-16 -0.13052619222005968 -0.9914448613738094
  outer loop
    vertex -572.8390692131043 639.4828340963372 10.897777478867246
    vertex -575.8390692131043 638.7063769610296 11.000000000000048
    vertex -575.8390692131043 639.4828340963372 10.897777478867246
  endloop
endfacet
facet normal 2.2769421867585663e-16 -0.13052619222005968 -0.9914448613738094
  outer loop
    vertex -575.8390692131043 638.7063769610296 11.000000000000048
    vertex -572.8390692131043 639.4828340963372 10.897777478867246
    vertex -572.8390692131043 638.7063769610296 11.000000000000048
  endloop
endfacet
facet normal 2.1217723395558658e-16 -0.38268343236507063 -0.9238795325112947
  outer loop
    vertex -572.8390692131043 640.2063769610297 10.598076211353366
    vertex -575.8390692131043 639.4828340963372 10.897777478867246
    vertex -575.8390692131043 640.2063769610297 10.598076211353366
  endloop
endfacet
facet normal 2.1217723395558658e-16 -0.38268343236507063 -0.9238795325112947
  outer loop
    vertex -575.8390692131043 639.4828340963372 10.897777478867246
    vertex -572.8390692131043 640.2063769610297 10.598076211353366
    vertex -572.8390692131043 639.4828340963372 10.897777478867246
  endloop
endfacet
facet normal 1.822007213806956e-16 -0.6087614290087312 -0.7933533402912273
  outer loop
    vertex -572.8390692131043 640.8276973045894 10.12132034355969
    vertex -575.8390692131043 640.2063769610297 10.598076211353366
    vertex -575.8390692131043 640.8276973045894 10.12132034355969
  endloop
endfacet
facet normal 1.822007213806956e-16 -0.6087614290087312 -0.7933533402912273
  outer loop
    vertex -575.8390692131043 640.2063769610297 10.598076211353366
    vertex -572.8390692131043 640.8276973045894 10.12132034355969
    vertex -572.8390692131043 640.2063769610297 10.598076211353366
  endloop
endfacet
facet normal 1.3980753074464084e-16 -0.7933533402912465 -0.6087614290087061
  outer loop
    vertex -572.8390692131043 640.8276973045894 10.12132034355969
    vertex -575.8390692131043 641.304453172383 9.50000000000005
    vertex -572.8390692131043 641.304453172383 9.50000000000005
  endloop
endfacet
facet normal 1.3980753074464084e-16 -0.7933533402912465 -0.6087614290087061
  outer loop
    vertex -575.8390692131043 641.304453172383 9.50000000000005
    vertex -572.8390692131043 640.8276973045894 10.12132034355969
    vertex -575.8390692131043 640.8276973045894 10.12132034355969
  endloop
endfacet
facet normal 8.788668793121564e-17 -0.9238795325112803 -0.3826834323651054
  outer loop
    vertex -572.8390692131043 641.304453172383 9.50000000000005
    vertex -575.8390692131043 641.6041544398969 8.77645713530761
    vertex -572.8390692131043 641.6041544398969 8.77645713530761
  endloop
endfacet
facet normal 8.788668793121564e-17 -0.9238795325112803 -0.3826834323651054
  outer loop
    vertex -575.8390692131043 641.6041544398969 8.77645713530761
    vertex -572.8390692131043 641.304453172383 9.50000000000005
    vertex -575.8390692131043 641.304453172383 9.50000000000005
  endloop
endfacet
facet normal 0.0 0.9914448613738043 0.13052619222009842
  outer loop
    vertex -572.8390692131043 637.2063769610296 8.000000000000053
    vertex -569.9726379792379 637.2574882215962 7.611771432346263
    vertex -572.8390692131043 637.2574882215962 7.611771432346263
  endloop
endfacet
facet normal 0.0 0.9914448613738043 0.13052619222009842
  outer loop
    vertex -569.9726379792379 637.2574882215962 7.611771432346263
    vertex -572.8390692131043 637.2063769610296 8.000000000000053
    vertex -569.9726379792379 637.2063769610296 8.000000000000053
  endloop
endfacet
facet normal 0.0 0.9914448613738043 -0.13052619222009842
  outer loop
    vertex -572.8390692131043 637.2574882215962 8.388228567653842
    vertex -569.9726379792379 637.2063769610296 8.000000000000053
    vertex -572.8390692131043 637.2063769610296 8.000000000000053
  endloop
endfacet
facet normal 0.0 0.9914448613738043 -0.13052619222009842
  outer loop
    vertex -569.9726379792379 637.2063769610296 8.000000000000053
    vertex -572.8390692131043 637.2574882215962 8.388228567653842
    vertex -569.9726379792379 637.2574882215962 8.388228567653842
  endloop
endfacet
facet normal 0.0 0.9238795325113007 -0.38268343236505625
  outer loop
    vertex -572.8390692131043 637.407338855353 8.750000000000062
    vertex -569.9726379792379 637.2574882215962 8.388228567653842
    vertex -572.8390692131043 637.2574882215962 8.388228567653842
  endloop
endfacet
facet normal 0.0 0.9238795325113007 -0.38268343236505625
  outer loop
    vertex -569.9726379792379 637.2574882215962 8.388228567653842
    vertex -572.8390692131043 637.407338855353 8.750000000000062
    vertex -569.9726379792379 637.407338855353 8.750000000000062
  endloop
endfacet
facet normal 0.0 0.7933533402912517 -0.6087614290086991
  outer loop
    vertex -572.8390692131043 637.6457167892498 9.060660171779888
    vertex -569.9726379792379 637.407338855353 8.750000000000062
    vertex -572.8390692131043 637.407338855353 8.750000000000062
  endloop
endfacet
facet normal 0.0 0.7933533402912517 -0.6087614290086991
  outer loop
    vertex -569.9726379792379 637.407338855353 8.750000000000062
    vertex -572.8390692131043 637.6457167892498 9.060660171779888
    vertex -569.9726379792379 637.6457167892498 9.060660171779888
  endloop
endfacet
facet normal 0.0 0.6087614290087033 -0.7933533402912485
  outer loop
    vertex -569.9726379792379 637.9563769610296 9.299038105676726
    vertex -572.8390692131043 637.6457167892498 9.060660171779888
    vertex -572.8390692131043 637.9563769610296 9.299038105676726
  endloop
endfacet
facet normal 0.0 0.6087614290087033 -0.7933533402912485
  outer loop
    vertex -572.8390692131043 637.6457167892498 9.060660171779888
    vertex -569.9726379792379 637.9563769610296 9.299038105676726
    vertex -569.9726379792379 637.6457167892498 9.060660171779888
  endloop
endfacet
facet normal 0.0 0.3826834323651156 -0.9238795325112762
  outer loop
    vertex -569.9726379792379 638.318148393376 9.448888739433679
    vertex -572.8390692131043 637.9563769610296 9.299038105676726
    vertex -572.8390692131043 638.318148393376 9.448888739433679
  endloop
endfacet
facet normal 0.0 0.3826834323651156 -0.9238795325112762
  outer loop
    vertex -572.8390692131043 637.9563769610296 9.299038105676726
    vertex -569.9726379792379 638.318148393376 9.448888739433679
    vertex -569.9726379792379 637.9563769610296 9.299038105676726
  endloop
endfacet
facet normal 0.0 0.13052619222003808 -0.9914448613738123
  outer loop
    vertex -569.9726379792379 638.7063769610296 9.500000000000073
    vertex -572.8390692131043 638.318148393376 9.448888739433679
    vertex -572.8390692131043 638.7063769610296 9.500000000000073
  endloop
endfacet
facet normal 0.0 0.13052619222003808 -0.9914448613738123
  outer loop
    vertex -572.8390692131043 638.318148393376 9.448888739433679
    vertex -569.9726379792379 638.7063769610296 9.500000000000073
    vertex -569.9726379792379 638.318148393376 9.448888739433679
  endloop
endfacet
facet normal -0.0 -0.13052619222003808 -0.9914448613738123
  outer loop
    vertex -569.9726379792379 639.0946055286836 9.448888739433679
    vertex -572.8390692131043 638.7063769610296 9.500000000000073
    vertex -572.8390692131043 639.0946055286836 9.448888739433679
  endloop
endfacet
facet normal -0.0 -0.13052619222003808 -0.9914448613738123
  outer loop
    vertex -572.8390692131043 638.7063769610296 9.500000000000073
    vertex -569.9726379792379 639.0946055286836 9.448888739433679
    vertex -569.9726379792379 638.7063769610296 9.500000000000073
  endloop
endfacet
facet normal -0.0 -0.3826834323651156 -0.9238795325112762
  outer loop
    vertex -569.9726379792379 639.4563769610297 9.299038105676726
    vertex -572.8390692131043 639.0946055286836 9.448888739433679
    vertex -572.8390692131043 639.4563769610297 9.299038105676726
  endloop
endfacet
facet normal -0.0 -0.3826834323651156 -0.9238795325112762
  outer loop
    vertex -572.8390692131043 639.0946055286836 9.448888739433679
    vertex -569.9726379792379 639.4563769610297 9.299038105676726
    vertex -569.9726379792379 639.0946055286836 9.448888739433679
  endloop
endfacet
facet normal -0.0 -0.6087614290087033 -0.7933533402912485
  outer loop
    vertex -569.9726379792379 639.7670371328096 9.060660171779888
    vertex -572.8390692131043 639.4563769610297 9.299038105676726
    vertex -572.8390692131043 639.7670371328096 9.060660171779888
  endloop
endfacet
facet normal -0.0 -0.6087614290087033 -0.7933533402912485
  outer loop
    vertex -572.8390692131043 639.4563769610297 9.299038105676726
    vertex -569.9726379792379 639.7670371328096 9.060660171779888
    vertex -569.9726379792379 639.4563769610297 9.299038105676726
  endloop
endfacet
facet normal -0.0 -0.7933533402912517 -0.6087614290086991
  outer loop
    vertex -569.9726379792379 639.7670371328096 9.060660171779888
    vertex -572.8390692131043 640.0054150667064 8.750000000000062
    vertex -569.9726379792379 640.0054150667064 8.750000000000062
  endloop
endfacet
facet normal -0.0 -0.7933533402912517 -0.6087614290086991
  outer loop
    vertex -572.8390692131043 640.0054150667064 8.750000000000062
    vertex -569.9726379792379 639.7670371328096 9.060660171779888
    vertex -572.8390692131043 639.7670371328096 9.060660171779888
  endloop
endfacet
facet normal -0.0 -0.9238795325113007 -0.38268343236505625
  outer loop
    vertex -569.9726379792379 640.0054150667064 8.750000000000062
    vertex -572.8390692131043 640.1552657004634 8.388228567653842
    vertex -569.9726379792379 640.1552657004634 8.388228567653842
  endloop
endfacet
facet normal -0.0 -0.9238795325113007 -0.38268343236505625
  outer loop
    vertex -572.8390692131043 640.1552657004634 8.388228567653842
    vertex -569.9726379792379 640.0054150667064 8.750000000000062
    vertex -572.8390692131043 640.0054150667064 8.750000000000062
  endloop
endfacet
facet normal -0.0 -0.9914448613738043 -0.13052619222009842
  outer loop
    vertex -569.9726379792379 640.1552657004634 8.388228567653842
    vertex -572.8390692131043 640.2063769610297 8.000000000000053
    vertex -569.9726379792379 640.2063769610297 8.000000000000053
  endloop
endfacet
facet normal -0.0 -0.9914448613738043 -0.13052619222009842
  outer loop
    vertex -572.8390692131043 640.2063769610297 8.000000000000053
    vertex -569.9726379792379 640.1552657004634 8.388228567653842
    vertex -572.8390692131043 640.1552657004634 8.388228567653842
  endloop
endfacet
facet normal 0.0 -0.9914448613738043 0.13052619222009842
  outer loop
    vertex -569.9726379792379 640.2063769610297 8.000000000000053
    vertex -572.8390692131043 640.1552657004634 7.611771432346263
    vertex -569.9726379792379 640.1552657004634 7.611771432346263
  endloop
endfacet
facet normal 0.0 -0.9914448613738043 0.13052619222009842
  outer loop
    vertex -572.8390692131043 640.1552657004634 7.611771432346263
    vertex -569.9726379792379 640.2063769610297 8.000000000000053
    vertex -572.8390692131043 640.2063769610297 8.000000000000053
  endloop
endfacet
facet normal 0.0 -0.9238795325113007 0.38268343236505625
  outer loop
    vertex -569.9726379792379 640.1552657004634 7.611771432346263
    vertex -572.8390692131043 640.0054150667064 7.2500000000000435
    vertex -569.9726379792379 640.0054150667064 7.2500000000000435
  endloop
endfacet
facet normal 0.0 -0.9238795325113007 0.38268343236505625
  outer loop
    vertex -572.8390692131043 640.0054150667064 7.2500000000000435
    vertex -569.9726379792379 640.1552657004634 7.611771432346263
    vertex -572.8390692131043 640.1552657004634 7.611771432346263
  endloop
endfacet
facet normal 0.0 -0.7933533402912517 0.6087614290086991
  outer loop
    vertex -569.9726379792379 640.0054150667064 7.2500000000000435
    vertex -572.8390692131043 639.7670371328096 6.939339828220218
    vertex -569.9726379792379 639.7670371328096 6.939339828220218
  endloop
endfacet
facet normal 0.0 -0.7933533402912517 0.6087614290086991
  outer loop
    vertex -572.8390692131043 639.7670371328096 6.939339828220218
    vertex -569.9726379792379 640.0054150667064 7.2500000000000435
    vertex -572.8390692131043 640.0054150667064 7.2500000000000435
  endloop
endfacet
facet normal 0.0 -0.6087614290087033 0.7933533402912485
  outer loop
    vertex -569.9726379792379 639.4563769610297 6.70096189432338
    vertex -572.8390692131043 639.7670371328096 6.939339828220218
    vertex -572.8390692131043 639.4563769610297 6.70096189432338
  endloop
endfacet
facet normal 0.0 -0.6087614290087033 0.7933533402912485
  outer loop
    vertex -572.8390692131043 639.7670371328096 6.939339828220218
    vertex -569.9726379792379 639.4563769610297 6.70096189432338
    vertex -569.9726379792379 639.7670371328096 6.939339828220218
  endloop
endfacet
facet normal 0.0 -0.3826834323651156 0.9238795325112762
  outer loop
    vertex -569.9726379792379 639.0946055286836 6.551111260566428
    vertex -572.8390692131043 639.4563769610297 6.70096189432338
    vertex -572.8390692131043 639.0946055286836 6.551111260566428
  endloop
endfacet
facet normal 0.0 -0.3826834323651156 0.9238795325112762
  outer loop
    vertex -572.8390692131043 639.4563769610297 6.70096189432338
    vertex -569.9726379792379 639.0946055286836 6.551111260566428
    vertex -569.9726379792379 639.4563769610297 6.70096189432338
  endloop
endfacet
facet normal 0.0 -0.13052619222003808 0.9914448613738123
  outer loop
    vertex -569.9726379792379 638.7063769610296 6.500000000000033
    vertex -572.8390692131043 639.0946055286836 6.551111260566428
    vertex -572.8390692131043 638.7063769610296 6.500000000000033
  endloop
endfacet
facet normal 0.0 -0.13052619222003808 0.9914448613738123
  outer loop
    vertex -572.8390692131043 639.0946055286836 6.551111260566428
    vertex -569.9726379792379 638.7063769610296 6.500000000000033
    vertex -569.9726379792379 639.0946055286836 6.551111260566428
  endloop
endfacet
facet normal 0.0 0.13052619222003808 0.9914448613738123
  outer loop
    vertex -569.9726379792379 638.318148393376 6.551111260566428
    vertex -572.8390692131043 638.7063769610296 6.500000000000033
    vertex -572.8390692131043 638.318148393376 6.551111260566428
  endloop
endfacet
facet normal 0.0 0.13052619222003808 0.9914448613738123
  outer loop
    vertex -572.8390692131043 638.7063769610296 6.500000000000033
    vertex -569.9726379792379 638.318148393376 6.551111260566428
    vertex -569.9726379792379 638.7063769610296 6.500000000000033
  endloop
endfacet
facet normal 0.0 0.3826834323651156 0.9238795325112762
  outer loop
    vertex -569.9726379792379 637.9563769610296 6.70096189432338
    vertex -572.8390692131043 638.318148393376 6.551111260566428
    vertex -572.8390692131043 637.9563769610296 6.70096189432338
  endloop
endfacet
facet normal 0.0 0.3826834323651156 0.9238795325112762
  outer loop
    vertex -572.8390692131043 638.318148393376 6.551111260566428
    vertex -569.9726379792379 637.9563769610296 6.70096189432338
    vertex -569.9726379792379 638.318148393376 6.551111260566428
  endloop
endfacet
facet normal 0.0 0.6087614290087033 0.7933533402912485
  outer loop
    vertex -569.9726379792379 637.6457167892498 6.939339828220218
    vertex -572.8390692131043 637.9563769610296 6.70096189432338
    vertex -572.8390692131043 637.6457167892498 6.939339828220218
  endloop
endfacet
facet normal 0.0 0.6087614290087033 0.7933533402912485
  outer loop
    vertex -572.8390692131043 637.9563769610296 6.70096189432338
    vertex -569.9726379792379 637.6457167892498 6.939339828220218
    vertex -569.9726379792379 637.9563769610296 6.70096189432338
  endloop
endfacet
facet normal 0.0 0.7933533402912517 0.6087614290086991
  outer loop
    vertex -572.8390692131043 637.407338855353 7.2500000000000435
    vertex -569.9726379792379 637.6457167892498 6.939339828220218
    vertex -572.8390692131043 637.6457167892498 6.939339828220218
  endloop
endfacet
facet normal 0.0 0.7933533402912517 0.6087614290086991
  outer loop
    vertex -569.9726379792379 637.6457167892498 6.939339828220218
    vertex -572.8390692131043 637.407338855353 7.2500000000000435
    vertex -569.9726379792379 637.407338855353 7.2500000000000435
  endloop
endfacet
facet normal 0.0 0.9238795325113007 0.38268343236505625
  outer loop
    vertex -572.8390692131043 637.2574882215962 7.611771432346263
    vertex -569.9726379792379 637.407338855353 7.2500000000000435
    vertex -572.8390692131043 637.407338855353 7.2500000000000435
  endloop
endfacet
facet normal 0.0 0.9238795325113007 0.38268343236505625
  outer loop
    vertex -569.9726379792379 637.407338855353 7.2500000000000435
    vertex -572.8390692131043 637.2574882215962 7.611771432346263
    vertex -569.9726379792379 637.2574882215962 7.611771432346263
  endloop
endfacet
facet normal -0.0015859480227335507 -0.9999512216277012 -0.009748801676980097
  outer loop
    vertex -572.207837979239 620.2646476905938 2.235199999958988
    vertex -573.8390692131043 620.2892250467373 0.0
    vertex -569.972637979239 620.2892250467373 0.0
  endloop
endfacet
facet normal -0.0015859480227335507 -0.9999512216277012 -0.009748801676980097
  outer loop
    vertex -573.8390692131043 620.2892250467373 0.0
    vertex -572.207837979239 620.2646476905938 2.235199999958988
    vertex -575.8390692131043 620.2769363686656 2.235199999958988
  endloop
endfacet
facet normal -0.0016919930901551285 -0.9999477764142712 -0.010078769941703772
  outer loop
    vertex -572.2078379792388 620.2646476905938 2.8447999999582896
    vertex -575.8390692131043 620.2769363686656 2.235199999958988
    vertex -572.207837979239 620.2646476905938 2.235199999958988
  endloop
endfacet
facet normal -0.0016919930901551285 -0.9999477764142712 -0.010078769941703772
  outer loop
    vertex -575.8390692131043 620.2769363686656 2.235199999958988
    vertex -572.2078379792388 620.2646476905938 2.8447999999582896
    vertex -575.8390692131043 620.2646476905938 2.8447999999582896
  endloop
endfacet
facet normal -0.0004667226928144766 -0.9999963528444622 0.002660163096888211
  outer loop
    vertex -569.9726379792378 620.2646476905938 5.0799999999577725
    vertex -575.8390692131043 620.2646476905938 2.8447999999582896
    vertex -572.2078379792388 620.2646476905938 2.8447999999582896
  endloop
endfacet
facet normal -0.0004667226928144766 -0.9999963528444622 0.002660163096888211
  outer loop
    vertex -575.8390692131043 620.2646476905938 2.8447999999582896
    vertex -569.9726379792378 620.2646476905938 5.0799999999577725
    vertex -575.8390692131043 620.2892250467373 12.577418886944708
  endloop
endfacet
facet normal -0.0004667226928144766 -0.9999963528444622 0.002660163096888211
  outer loop
    vertex -575.8390692131043 620.2892250467373 12.577418886944708
    vertex -569.9726379792378 620.2646476905938 5.0799999999577725
    vertex -569.9726379792378 620.2892250467373 12.577418886944708
  endloop
endfacet
endsolid SightGuard
